<?xml version="1.0" encoding="UTF-8" standalone="no"?>
<!-- Created with Inkscape (http://www.inkscape.org/) -->

<svg
   xmlns:dc="http://purl.org/dc/elements/1.1/"
   xmlns:cc="http://creativecommons.org/ns#"
   xmlns:rdf="http://www.w3.org/1999/02/22-rdf-syntax-ns#"
   xmlns:svg="http://www.w3.org/2000/svg"
   xmlns="http://www.w3.org/2000/svg"
   xmlns:sodipodi="http://sodipodi.sourceforge.net/DTD/sodipodi-0.dtd"
   xmlns:inkscape="http://www.inkscape.org/namespaces/inkscape"
   width="128"
   height="128"
   viewBox="0 0 33.866666 33.866668"
   version="1.1"
   id="svg8"
   inkscape:version="0.92.4 (5da689c313, 2019-01-14)"
   sodipodi:docname="PSCortex.svg">
  <title
     id="title3827">PSCortex</title>
  <defs
     id="defs2" />
  <sodipodi:namedview
     id="base"
     pagecolor="#ffffff"
     bordercolor="#666666"
     borderopacity="1.0"
     inkscape:pageopacity="0.0"
     inkscape:pageshadow="2"
     inkscape:zoom="6.625"
     inkscape:cx="-18.56349"
     inkscape:cy="65.931219"
     inkscape:document-units="px"
     inkscape:current-layer="text5158"
     showgrid="false"
     units="px"
     inkscape:window-width="3000"
     inkscape:window-height="1875"
     inkscape:window-x="-13"
     inkscape:window-y="-13"
     inkscape:window-maximized="1" />
  <metadata
     id="metadata5">
    <rdf:RDF>
      <cc:Work
         rdf:about="">
        <dc:format>image/svg+xml</dc:format>
        <dc:type
           rdf:resource="http://purl.org/dc/dcmitype/StillImage" />
        <dc:title>SNMPv3</dc:title>
      </cc:Work>
    </rdf:RDF>
  </metadata>
  <g
     inkscape:label="Layer 1"
     inkscape:groupmode="layer"
     id="layer1"
     transform="translate(0,-263.13332)">
    <path
       style="fill:#b3b3b3;stroke-width:0.26458335"
       d="M 1.3229166,263.13333 H 32.543752 c 0.732896,0 1.322917,0.59002 1.322917,1.32292 v 31.22083 c 0,0.7329 -0.590021,1.32292 -1.322917,1.32292 H 1.3229166 C 0.59002082,297 0,296.40998 0,295.67708 v -31.22083 c 0,-0.7329 0.59002082,-1.32292 1.3229166,-1.32292 z"
       id="rect3724" />
    <path
       style="fill:#666666;stroke-width:0.88191718"
       d="M 13.375 19 C 10.95125 19 9 20.95125 9 23.375 L 9 84.625 C 9 87.04875 10.95125 89 13.375 89 L 34 89 L 34 95.666016 C 34 97.512682 35.487318 99 37.333984 99 L 44 99 L 44 105.66602 C 44 107.51268 45.487318 109 47.333984 109 L 80.666016 109 C 82.512682 109 84 107.51268 84 105.66602 L 84 99 L 90.666016 99 C 92.512682 99 94 97.512682 94 95.666016 L 94 89 L 114.625 89 C 117.04875 89 119 87.04875 119 84.625 L 119 23.375 C 119 20.95125 117.04875 19 114.625 19 L 13.375 19 z "
       transform="matrix(0.26458334,0,0,0.26458334,0,263.13332)"
       id="rect3726" />
    <g
       id="g3799"
       transform="translate(2.6158795,-2.2988615)">
      <path
         style="fill:#808000;stroke-width:0.30551454"
         d="m 6.9091201,271.51761 c 0.2931583,0 0.5291667,0.23601 0.5291667,0.52917 v 1.5875 c 0,0.29315 -0.2360084,0.52916 -0.5291667,0.52916 -0.2931584,0 -0.5291667,-0.23601 -0.5291667,-0.52916 v -1.5875 c 0,-0.29316 0.2360083,-0.52917 0.5291667,-0.52917 z"
         id="rect3732" />
      <path
         style="fill:#808000;stroke-width:0.30551454"
         d="m 9.0257878,271.51761 c 0.2931584,0 0.5291667,0.23601 0.5291667,0.52917 v 1.5875 c 0,0.29315 -0.2360083,0.52916 -0.5291667,0.52916 -0.2931583,0 -0.5291667,-0.23601 -0.5291667,-0.52916 v -1.5875 c 0,-0.29316 0.2360084,-0.52917 0.5291667,-0.52917 z"
         id="rect3732-3" />
      <path
         style="fill:#808000;stroke-width:0.30551454"
         d="m 11.142455,271.51761 c 0.293158,0 0.529166,0.23601 0.529166,0.52917 v 1.5875 c 0,0.29315 -0.236008,0.52916 -0.529166,0.52916 -0.293159,0 -0.529167,-0.23601 -0.529167,-0.52916 v -1.5875 c 0,-0.29316 0.236008,-0.52917 0.529167,-0.52917 z"
         id="rect3732-2" />
      <path
         style="fill:#808000;stroke-width:0.30551454"
         d="m 19.609123,271.51761 c 0.293158,0 0.529166,0.23601 0.529166,0.52917 v 1.5875 c 0,0.29315 -0.236008,0.52916 -0.529166,0.52916 -0.293159,0 -0.529167,-0.23601 -0.529167,-0.52916 v -1.5875 c 0,-0.29316 0.236008,-0.52917 0.529167,-0.52917 z"
         id="rect3732-5" />
      <path
         style="fill:#808000;stroke-width:0.30551454"
         d="m 17.492456,271.51761 c 0.293158,0 0.529167,0.23601 0.529167,0.52917 v 1.5875 c 0,0.29315 -0.236009,0.52916 -0.529167,0.52916 -0.293158,0 -0.529167,-0.23601 -0.529167,-0.52916 v -1.5875 c 0,-0.29316 0.236009,-0.52917 0.529167,-0.52917 z"
         id="rect3732-1" />
      <path
         style="fill:#808000;stroke-width:0.30551454"
         d="m 21.72579,271.51761 c 0.293158,0 0.529166,0.23601 0.529166,0.52917 v 1.5875 c 0,0.29315 -0.236008,0.52916 -0.529166,0.52916 -0.293159,0 -0.529167,-0.23601 -0.529167,-0.52916 v -1.5875 c 0,-0.29316 0.236008,-0.52917 0.529167,-0.52917 z"
         id="rect3732-13" />
      <path
         style="fill:#808000;stroke-width:0.30551454"
         d="m 13.25912,271.51761 c 0.293159,0 0.529167,0.23601 0.529167,0.52917 v 1.5875 c 0,0.29315 -0.236008,0.52916 -0.529167,0.52916 -0.293158,0 -0.529166,-0.23601 -0.529166,-0.52916 v -1.5875 c 0,-0.29316 0.236008,-0.52917 0.529166,-0.52917 z"
         id="rect3732-6" />
      <path
         style="fill:#808000;stroke-width:0.30551454"
         d="m 15.375789,271.51761 c 0.293159,0 0.529167,0.23601 0.529167,0.52917 v 1.5875 c 0,0.29315 -0.236008,0.52916 -0.529167,0.52916 -0.293158,0 -0.529167,-0.23601 -0.529167,-0.52916 v -1.5875 c 0,-0.29316 0.236009,-0.52917 0.529167,-0.52917 z"
         id="rect3732-9" />
    </g>
    <g
       aria-label="SNMP"
       style="font-style:normal;font-variant:normal;font-weight:normal;font-stretch:normal;font-size:10.58333397px;line-height:1.25;font-family:'Arial Rounded MT Bold';-inkscape-font-specification:'Arial Rounded MT Bold, ';letter-spacing:0px;word-spacing:0px;fill:#333333;fill-opacity:1;stroke:none;stroke-width:0.26458335"
       id="text3831">
      <g
         aria-label="Cortex"
         style="font-style:normal;font-weight:normal;font-size:10.58333397px;line-height:1.25;font-family:sans-serif;letter-spacing:0px;word-spacing:0px;fill:#333333;fill-opacity:1;stroke:none;stroke-width:0.07000434"
         id="text5158">
        <path
           d="m 9.5767624,278.97314 q 0,0.26527 -0.1326361,0.57601 -0.1288466,0.30696 -0.4092774,0.60634 -0.2804308,0.29559 -0.7162354,0.48128 -0.4358045,0.18569 -1.0156141,0.18569 -0.4395942,0 -0.7996067,-0.0834 -0.3600125,-0.0834 -0.6556017,-0.25769 -0.2917996,-0.17811 -0.5381239,-0.46612 -0.2197971,-0.26149 -0.3751709,-0.5836 -0.1553738,-0.32591 -0.2349555,-0.6935 -0.075792,-0.36759 -0.075792,-0.78066 0,-0.67076 0.1932698,-1.2013 0.1970595,-0.53055 0.5608616,-0.90572 0.3638021,-0.37896 0.8526611,-0.57602 0.4888591,-0.19706 1.0421414,-0.19706 0.6745497,0 1.2013049,0.26906 0.5267551,0.26906 0.8071858,0.66697 0.2804308,0.39412 0.2804308,0.74656 0,0.19327 -0.1364258,0.34106 -0.1364257,0.14779 -0.3296956,0.14779 -0.2160075,0 -0.325906,-0.10231 -0.106109,-0.10232 -0.2387452,-0.35244 -0.2197971,-0.41306 -0.5191759,-0.6177 -0.2955892,-0.20464 -0.7313938,-0.20464 -0.6934977,0 -1.1065646,0.52675 -0.4092774,0.52676 -0.4092774,1.4969 0,0.64802 0.181901,1.08003 0.1819011,0.42823 0.5153863,0.64045 0.3334853,0.21222 0.7806587,0.21222 0.4850694,0 0.8185547,-0.23875 0.3372749,-0.24253 0.5078071,-0.70866 0.072002,-0.21979 0.1781114,-0.35622 0.106109,-0.14021 0.3410645,-0.14021 0.2008491,0 0.344854,0.14021 0.144005,0.14022 0.144005,0.34865 z"
           style="font-style:normal;font-variant:normal;font-weight:normal;font-stretch:normal;font-size:7.76111126px;font-family:'Arial Rounded MT Bold';-inkscape-font-specification:'Arial Rounded MT Bold, ';fill:#333333;fill-opacity:1;stroke-width:0.07000434"
           id="path5160" />
        <path
           d="m 14.389561,278.71923 q 0,0.46233 -0.144005,0.85266 -0.144005,0.39033 -0.416857,0.67076 -0.272851,0.28043 -0.651812,0.43202 -0.37896,0.14779 -0.852661,0.14779 -0.469911,0 -0.845082,-0.15158 -0.375171,-0.15159 -0.651812,-0.43202 -0.272851,-0.28422 -0.416856,-0.66697 -0.140216,-0.38654 -0.140216,-0.85266 0,-0.46991 0.144005,-0.86024 0.144005,-0.39033 0.413067,-0.66697 0.269062,-0.27664 0.651812,-0.42444 0.38275,-0.15158 0.845082,-0.15158 0.469911,0 0.852661,0.15158 0.38275,0.15159 0.655602,0.43202 0.272852,0.28043 0.413067,0.66697 0.144005,0.38654 0.144005,0.85266 z m -1.038352,0 q 0,-0.63286 -0.280431,-0.9853 -0.276641,-0.35243 -0.746552,-0.35243 -0.303168,0 -0.534334,0.15916 -0.231166,0.15538 -0.356223,0.46234 -0.125057,0.30695 -0.125057,0.71623 0,0.40549 0.121267,0.70866 0.125057,0.30317 0.352434,0.46612 0.231166,0.15916 0.541913,0.15916 0.469911,0 0.746552,-0.35243 0.280431,-0.35622 0.280431,-0.98151 z"
           style="font-style:normal;font-variant:normal;font-weight:normal;font-stretch:normal;font-size:7.76111126px;font-family:'Arial Rounded MT Bold';-inkscape-font-specification:'Arial Rounded MT Bold, ';fill:#333333;fill-opacity:1;stroke-width:0.07000434"
           id="path5162" />
        <path
           d="m 16.227519,279.32936 v 0.86403 q 0,0.31454 -0.147794,0.4737 -0.147795,0.15537 -0.375171,0.15537 -0.223587,0 -0.367592,-0.15916 -0.144005,-0.15916 -0.144005,-0.46991 v -2.8801 q 0,-0.69729 0.504018,-0.69729 0.257693,0 0.371381,0.16295 0.113688,0.16296 0.125057,0.48128 0.185691,-0.31832 0.37896,-0.48128 0.19706,-0.16295 0.522966,-0.16295 0.325906,0 0.632864,0.16295 0.306958,0.16296 0.306958,0.43202 0,0.18948 -0.132636,0.31454 -0.128847,0.12126 -0.280431,0.12126 -0.05684,0 -0.276641,-0.0682 -0.216008,-0.072 -0.38275,-0.072 -0.227377,0 -0.371382,0.12127 -0.144005,0.11747 -0.223586,0.35243 -0.07958,0.23495 -0.109899,0.56086 -0.03032,0.32212 -0.03032,0.78824 z"
           style="font-style:normal;font-variant:normal;font-weight:normal;font-stretch:normal;font-size:7.76111126px;font-family:'Arial Rounded MT Bold';-inkscape-font-specification:'Arial Rounded MT Bold, ';fill:#333333;fill-opacity:1;stroke-width:0.07000434"
           id="path5164" />
        <path
           d="M 18.745712,276.70695 H 18.8594 v -0.62149 q 0,-0.25012 0.01137,-0.39033 0.01516,-0.14401 0.07579,-0.24633 0.06063,-0.10611 0.174322,-0.17053 0.113688,-0.0682 0.253904,-0.0682 0.197059,0 0.356223,0.14779 0.106109,0.0985 0.132636,0.24254 0.03032,0.14021 0.03032,0.40169 v 0.70487 h 0.37896 q 0.219797,0 0.333485,0.10611 0.117478,0.10232 0.117478,0.26527 0,0.20843 -0.166742,0.2918 -0.162954,0.0834 -0.469912,0.0834 h -0.193269 v 1.90239 q 0,0.24253 0.01516,0.37517 0.01895,0.12884 0.09095,0.21221 0.07579,0.0796 0.242534,0.0796 0.09095,0 0.246325,-0.0303 0.155373,-0.0341 0.242534,-0.0341 0.125057,0 0.223587,0.10232 0.102319,0.0985 0.102319,0.24633 0,0.25011 -0.272851,0.38275 -0.272852,0.13263 -0.784448,0.13263 -0.48507,0 -0.735184,-0.16295 -0.250114,-0.16295 -0.329695,-0.45096 -0.07579,-0.28801 -0.07579,-0.76929 v -1.98576 h -0.136425 q -0.223587,0 -0.341065,-0.10611 -0.117478,-0.1061 -0.117478,-0.26906 0,-0.16295 0.121268,-0.26527 0.125057,-0.10611 0.360012,-0.10611 z"
           style="font-style:normal;font-variant:normal;font-weight:normal;font-stretch:normal;font-size:7.76111126px;font-family:'Arial Rounded MT Bold';-inkscape-font-specification:'Arial Rounded MT Bold, ';fill:#333333;fill-opacity:1;stroke-width:0.07000434"
           id="path5166" />
        <path
           d="m 24.318326,278.97314 h -2.023649 q 0.0038,0.35243 0.140215,0.62149 0.140215,0.26906 0.367592,0.40549 0.231166,0.13642 0.507807,0.13642 0.18569,0 0.337275,-0.0417 0.155373,-0.0455 0.299378,-0.13643 0.144005,-0.0947 0.265273,-0.20085 0.121267,-0.10611 0.314537,-0.28801 0.07958,-0.0682 0.227376,-0.0682 0.159164,0 0.257693,0.0872 0.09853,0.0872 0.09853,0.24633 0,0.14021 -0.109898,0.32969 -0.109899,0.18569 -0.333486,0.36001 -0.219797,0.17054 -0.557072,0.28422 -0.333485,0.11369 -0.769289,0.11369 -0.996667,0 -1.549949,-0.56844 -0.553282,-0.56844 -0.553282,-1.54237 0,-0.45854 0.136425,-0.84887 0.136426,-0.39412 0.397909,-0.67455 0.261483,-0.28043 0.644233,-0.42822 0.38275,-0.15159 0.848871,-0.15159 0.606337,0 1.038352,0.25769 0.435805,0.25391 0.651812,0.6594 0.216008,0.40548 0.216008,0.82613 0,0.39033 -0.223587,0.50781 -0.223587,0.11369 -0.629074,0.11369 z m -2.023649,-0.58739 h 1.875854 q -0.0379,-0.53055 -0.28801,-0.79203 -0.246324,-0.26527 -0.651812,-0.26527 -0.38654,0 -0.636654,0.26906 -0.246324,0.26527 -0.299378,0.78824 z"
           style="font-style:normal;font-variant:normal;font-weight:normal;font-stretch:normal;font-size:7.76111126px;font-family:'Arial Rounded MT Bold';-inkscape-font-specification:'Arial Rounded MT Bold, ';fill:#333333;fill-opacity:1;stroke-width:0.07000434"
           id="path5168" />
        <path
           d="m 28.185619,280.39424 -0.750342,-1.10278 -0.76929,1.10278 q -0.166742,0.23116 -0.28422,0.32969 -0.113688,0.0985 -0.2918,0.0985 -0.197059,0 -0.337275,-0.12127 -0.136425,-0.12505 -0.136425,-0.28422 0,-0.16295 0.212218,-0.46612 l 0.936032,-1.34152 -0.829924,-1.11793 q -0.216007,-0.27664 -0.216007,-0.48128 0,-0.15916 0.128847,-0.27664 0.128846,-0.11748 0.337274,-0.11748 0.181901,0 0.299379,0.10232 0.121268,0.10232 0.280431,0.32212 l 0.67076,0.91708 0.651812,-0.91708 q 0.162953,-0.22738 0.280431,-0.32591 0.121267,-0.0985 0.299379,-0.0985 0.204638,0 0.337275,0.11748 0.136425,0.11369 0.136425,0.27664 0,0.11748 -0.05684,0.22738 -0.05305,0.1061 -0.166742,0.2539 l -0.829924,1.11793 0.936033,1.34152 q 0.219797,0.31454 0.219797,0.4737 0,0.16296 -0.136426,0.28043 -0.136426,0.11748 -0.337275,0.11748 -0.178111,0 -0.303168,-0.10232 -0.121268,-0.10232 -0.280431,-0.3259 z"
           style="font-style:normal;font-variant:normal;font-weight:normal;font-stretch:normal;font-size:7.76111126px;font-family:'Arial Rounded MT Bold';-inkscape-font-specification:'Arial Rounded MT Bold, ';fill:#333333;fill-opacity:1;stroke-width:0.07000434"
           id="path5170" />
      </g>
    </g>
  </g>
</svg>
